<svg width="1000" height="1000" viewBox="0 0 1000 1000" fill="none" xmlns="http://www.w3.org/2000/svg">
<g clip-path="url(#clip0_112_421)">
<circle cx="500" cy="500" r="500" fill="#190050" fill-opacity="0.51"/>
<path d="M138.409 279.838C142.46 281.807 147.602 282.577 151.995 283.584C157.165 284.768 162.288 286.251 167.434 287.548C185.983 292.228 204.461 297.2 223.013 301.88C278.253 315.814 333.276 330.629 388.516 344.563C412.619 350.643 436.741 356.787 460.769 363.17C469.196 365.409 477.659 367.52 486.088 369.744C489.927 370.757 494.431 372.7 498.439 372.511C501.3 372.376 504.312 371.122 507.085 370.422C513.48 368.809 519.84 367.071 526.229 365.438C545.805 360.436 565.367 355.359 584.896 350.178C628.674 338.564 672.525 327.135 716.433 316.044C741.32 309.758 766.028 301.895 791.156 296.662C786.228 294.015 779.306 293.637 773.865 292.375C760.297 289.227 746.687 286.272 733.107 283.171C709.473 277.777 685.667 273.088 662.089 267.448C651.614 264.943 641.107 262.6 630.594 260.258C624.922 258.993 619.098 257.249 613.303 256.783C614.657 254.04 617.141 249.474 620.151 248.351C623.954 246.931 631.075 250.055 634.917 250.911C647.462 253.706 660.118 256.183 672.587 259.276C702.656 266.732 733.156 272.63 763.367 279.526C773.643 281.874 783.962 284.05 794.244 286.38C800.142 287.718 806.743 290.359 812.77 290.634C816.395 290.799 820.403 288.9 823.886 288.018C833.026 285.701 842.339 282.354 851.676 281.085C849.632 277.541 843.666 277.348 839.942 276.671C830.018 274.865 820.206 272.362 810.3 270.433C770.475 262.679 730.791 253.696 691.114 245.155C648.332 235.946 605.383 227.407 562.664 217.886C548.081 214.636 533.463 211.485 518.818 208.524C512.039 207.153 504.765 204.46 497.821 204.46C493.081 204.46 488.245 206.125 483.618 207.059C474.132 208.972 464.672 211.004 455.211 213.034C426.621 219.168 397.961 224.97 369.372 231.104C314.248 242.932 258.994 254.171 203.869 265.998C182.113 270.667 159.942 274.215 138.409 279.838Z" fill="#0F80FA"/>
<path d="M296.171 336.945C295.284 342.223 293.312 347.382 291.781 352.504C289.19 361.176 286.727 369.925 284.283 378.643C283.354 381.957 282.486 385.302 281.509 388.601C281.086 390.024 280.037 391.874 280.569 393.391C281.333 395.568 285.66 395.806 287.535 396.333L309.741 402.557C339.363 410.779 368.886 419.413 398.568 427.42C421.219 433.53 443.874 439.808 466.422 446.299C473.607 448.368 480.81 450.347 488.012 452.346C491.939 453.436 496.208 455.482 500.349 455.34C503.421 455.234 506.634 453.999 509.602 453.247C515.573 451.734 521.558 450.274 527.491 448.611C540.972 444.831 554.627 441.487 568.203 438.062C604.012 429.031 639.834 419.914 675.536 410.455C695.577 405.145 715.699 399.049 735.987 394.824C734.902 389.066 731.472 383.365 729.115 378.02C724.822 368.288 720.572 358.532 716.353 348.77L711.837 338.19C711.165 336.643 710.585 334.491 708.716 334.086C704.324 333.138 697.687 336.57 693.424 337.646C680.242 340.976 667.12 344.549 653.946 347.914C618.143 357.061 582.346 366.285 546.613 375.708C535.924 378.527 525.253 381.449 514.537 384.165C509.434 385.459 503.746 387.679 498.499 387.999C493.402 388.31 487.394 385.54 482.46 384.325C470.92 381.482 459.409 378.504 447.917 375.459C412.03 365.951 376.072 356.36 339.967 347.74C330.475 345.474 321.058 342.771 311.592 340.383C306.527 339.106 301.417 337.176 296.171 336.945Z" fill="#0F80FA"/>
<path d="M425.452 758.27C421.021 760.664 414.942 760.67 410.015 761.659C399.04 763.867 388.075 766.292 377.287 769.308C344.694 778.412 313.578 791.702 284.661 809.388C275.258 815.14 266.096 821.515 257.49 828.417C254.082 831.154 249.55 833.859 247.61 837.87C259.001 844.406 269.478 852.608 280.955 859.101C309.269 875.108 338.841 888.465 369.877 898.173C494.043 937.034 634.808 917.432 742.852 844.089C740.802 839.854 735.917 836.639 732.354 833.672C723.703 826.471 714.662 819.643 705.184 813.586C673.819 793.536 639.424 777.71 603.295 768.612C592.432 765.876 580.584 761.616 569.332 761.379V760.136C580.406 759.657 592.066 755.988 602.677 752.934C632.925 744.241 662 730.472 686.659 710.634C695.526 703.502 703.603 695.747 711.303 687.376C714.533 683.869 717.627 677.992 721.881 675.754C724.388 674.435 727.754 674.168 730.502 673.565C734.441 672.7 738.375 671.475 742.234 670.312C754.424 666.637 766.07 661.538 777.432 655.814C783.311 652.854 792.95 649.133 795.519 642.601C798.465 635.11 799.835 626.879 801.151 618.97C804.195 600.711 804.603 582.711 804.603 564.245C804.603 557.723 804.01 551.447 803.411 544.967C803.102 541.607 803.034 537.303 801.151 534.395C798.829 530.802 795.34 527.898 792.252 525.012C785.898 519.072 779.069 513.578 771.875 508.693C767.75 505.892 760.321 503.161 757.635 498.884C755.943 496.195 755.504 492.062 754.72 488.999C753.491 484.165 751.855 479.417 750.262 474.695C745.989 462.063 739.783 450.035 732.972 438.627C730.279 434.12 727.315 429.812 724.234 425.567C723.091 423.993 721.819 421.693 719.899 420.992C716.984 419.93 712.365 422.278 709.506 423.001C701.17 425.11 692.685 428.039 684.188 429.299C685.603 434.383 691.321 438.837 694.556 442.98C700.75 450.906 706.116 459.462 710.587 468.477C728.865 505.284 733.614 547.723 724.678 587.877C721.609 601.685 716.997 615.692 710.581 628.298C705.19 638.895 698.712 649.005 691.135 658.148C641.947 717.469 561.055 734.16 487.821 730.932C458.332 729.633 429.537 726.057 401.37 716.604C372.854 707.034 346.584 692.196 324.799 671.183C297.593 644.943 279.599 606.425 276.58 568.598C275.111 550.187 274.85 532.157 278.13 513.874C282.136 491.549 291.027 469.722 303.819 451.064C309.412 442.907 316.716 436.079 322.329 428.055C313.817 425.266 305.076 422.87 296.393 420.671C293.677 419.983 289.296 417.701 286.537 418.538C284.485 419.161 283.079 421.47 281.835 423.08C278.464 427.444 275.286 432.035 272.436 436.761C265.024 449.049 258.48 461.736 253.701 475.317C251.972 480.233 250.41 485.185 249.138 490.242C248.464 492.922 248.2 496.416 246.799 498.816C245.674 500.743 243.26 501.696 241.435 502.807C238.279 504.728 235.235 506.833 232.172 508.899C222.253 515.591 211.351 523.555 204.01 533.152C199.723 538.757 200.595 548.809 199.957 555.539C198.005 576.112 199.271 598.019 202.911 618.348C204.102 624.997 205.301 631.814 207.371 638.248C208.135 640.622 208.711 643.601 210.288 645.58C213.851 650.052 221.606 653.248 226.615 655.813C237.685 661.482 249.308 666.463 261.195 670.107C265.039 671.282 268.998 672.482 272.928 673.322C275.876 673.95 279.504 674.211 282.181 675.66C286.698 678.11 290.011 684.211 293.411 687.998C300.202 695.56 307.74 702.5 315.536 708.986C337.657 727.394 363.34 739.931 390.254 749.377C401.126 753.189 413.872 757.76 425.452 758.27Z" fill="white"/>
<path d="M393.973 459.796C380.829 461.878 370.398 471.125 363.945 482.587C353.47 501.196 352.769 526.639 361.309 546.171C368.683 563.04 385.369 576.967 404.422 573.95C418.739 571.682 429.518 561.464 435.922 548.665C445.309 529.903 445.733 505.261 436.537 486.328C428.629 470.048 412.859 456.805 393.973 459.796Z" fill="white"/>
<path d="M599.699 459.807C585.835 462.002 575.107 472.176 568.781 484.476C559.2 503.106 558.917 527.009 567.187 546.208C574.513 563.214 591.096 576.776 610.158 574.001C624.484 571.916 635.329 561.405 641.685 548.702C651.102 529.879 651.641 505.325 642.302 486.346C634.242 469.968 618.818 456.78 599.699 459.807Z" fill="white"/>
<path d="M447.99 621.803C447.99 636.577 453.194 651.113 463.458 661.824C483.367 682.598 517.481 683.555 538.617 664.246C544.126 659.215 548.549 653.008 551.698 646.206C555.322 638.382 556.496 630.348 556.496 621.803H447.99Z" fill="white"/>
<path d="M751.583 412.223H836.925L821.034 376.533H812.869C817.849 374.134 821.034 370.707 821.034 366.862C821.034 361.597 815.131 357.087 806.665 354.994V294.448L784.596 300.018L787.072 300.554V354.685C777.899 356.612 771.394 361.324 771.394 366.862C771.394 370.707 774.576 374.134 779.557 376.533H771.394L764.66 388.667L755.069 405.941L751.583 412.223Z" fill="white"/>
<path d="M500 0C776.142 0 1000 223.858 1000 500C1000 776.142 776.142 1000 500 1000C223.858 1000 0 776.142 0 500C0 223.858 223.858 0 500 0ZM499.648 48.4541C250.451 48.4543 48.4375 250.469 48.4375 499.666C48.4376 748.863 250.452 950.877 499.648 950.877C748.846 950.877 950.86 748.863 950.86 499.666C950.86 250.469 748.846 48.4541 499.648 48.4541Z" fill="#0F80FA"/>
<rect y="500" width="1" height="1" fill="#D9D9D9" fill-opacity="0.01"/>
</g>
<defs>
<clipPath id="clip0_112_421">
<rect width="1000" height="1000" fill="white"/>
</clipPath>
</defs>
</svg>
